<svg id="Ebene_1" data-name="Ebene 1" xmlns="http://www.w3.org/2000/svg" xmlns:xlink="http://www.w3.org/1999/xlink" viewBox="0 0 2500 2500"><defs><style>.cls-1{fill:#fff;}.cls-2{fill:url(#Unbenannter_Verlauf_46);}.cls-3{fill:url(#Unbenannter_Verlauf_46-2);}.cls-4{fill:#424c66;}</style><linearGradient id="Unbenannter_Verlauf_46" x1="867.68" y1="938.83" x2="1635.77" y2="1706.92" gradientUnits="userSpaceOnUse"><stop offset="0" stop-color="#74dae2"/><stop offset="0.18" stop-color="#6fd1e5"/><stop offset="0.21" stop-color="#6ecfe6"/><stop offset="0.57" stop-color="#62b9ed"/><stop offset="0.99" stop-color="#4382ff"/></linearGradient><linearGradient id="Unbenannter_Verlauf_46-2" x1="651.4" y1="731.14" x2="1848.6" y2="1928.34" xlink:href="#Unbenannter_Verlauf_46"/></defs><title>Zeichenfläche 1</title><rect class="cls-1" x="150" y="150" width="2200" height="2200" rx="496.5" ry="496.5"/><path class="cls-2" d="M1708.63,1621.71c60.46-10.69,95.81-155.21,95.81-270.74,0-153.07-62.12-296.82-162.44-402.43s-238.9,0-392,0c-95.67,0-185.63-41.34-264.17-46.5-47.14-3.08-90.19,6.89-127.8,46.5C757.73,1054.15,695.76,1197.9,695.76,1351c0,126.27,42.2,267.76,113.29,272.92,101.27,7.37,261.09-59.14,441-59.14C1440.65,1564.75,1608.87,1639.37,1708.63,1621.71Z"/><path class="cls-3" d="M2002.11,975.44c-7,0-13.62,1.16-20.45,2.11a806.77,806.77,0,0,0-209.41-270.42c-150.86-126.6-336.89-189.91-522.58-189.91l0,.18A810.82,810.82,0,0,0,518.19,977.72c-6.77-.64-13.35-2.11-20.3-2.11A218.46,218.46,0,0,0,279,1194.54v270.57A218.46,218.46,0,0,0,497.89,1684c6.95,0,13.53-1.51,20.3-2.11,8.72,18.09,17.75,36,27.93,53.68,39.78,71,146,10.21,105-60.08-168-291-103-659.85,154.47-875.86a690.52,690.52,0,0,1,888.82,0c257.44,216,322.52,584.81,154.48,875.86l-1.81,3-1.21,3S1764.28,1862.1,1604,1862.1l-202.86-1.82c-19-27.78-49.47-47.12-85.82-47.12H1184.59a105.67,105.67,0,0,0-105.8,105.95c0,36.17,23,63.63,75.46,63.63l449.78,0c240.48,0,344.48-236.09,349.22-247v-.64c10.08-17.48,19-35.44,27.63-53.37,7.07.65,13.95,2.12,21.23,2.12A218.46,218.46,0,0,0,2221,1464.94V1194.36A218.46,218.46,0,0,0,2002.11,975.44Z"/><path class="cls-1" d="M1076.51,1084.78h99.94a45,45,0,0,1,45,45V1389a45,45,0,0,1-45,45h-99.94a50,50,0,0,1-50-50V1134.78A50,50,0,0,1,1076.51,1084.78Z"/><path class="cls-4" d="M1134.88,1242.14h86.56a0,0,0,0,1,0,0V1389a45,45,0,0,1-45,45h-66.56a0,0,0,0,1,0,0V1267.14A25,25,0,0,1,1134.88,1242.14Z"/><path class="cls-1" d="M1447.6,1084.78h99.94a45,45,0,0,1,45,45V1389a45,45,0,0,1-45,45H1447.6a50,50,0,0,1-50-50V1134.78A50,50,0,0,1,1447.6,1084.78Z"/><path class="cls-4" d="M1506,1242.14h86.56a0,0,0,0,1,0,0V1389a45,45,0,0,1-45,45H1481a0,0,0,0,1,0,0V1267.14A25,25,0,0,1,1506,1242.14Z"/></svg>